<?xml version="1.0"?><svg version="1.2" baseProfile="tiny-ps" viewBox="0 0 249 249" xmlns="http://www.w3.org/2000/svg" xmlns:xlink="http://www.w3.org/1999/xlink"><title>DenseLayers</title><g><g transform="matrix(.1 0 0 -.1 0 249)"><path d="M317 2172 20 1875V31l19-11 20-10h1815l298 297 298 298v1838l-11 13-11 14H615l-298-298zm1773-27-245-245-845 1H155l249 245 250 244h1681l-245-245zm55-275-245-245v210l243 243 242 242 3-102 3-102-246-246zm0-290-245-245v180l243 243 242 242 3-87 3-87-246-246zm-325-625V100H100v1710h1720V955zm403 402c-92-89-203-195-245-236l-78-74v178l243 243 242 242 3-96 3-96-168-161zm-70-349c-131-131-241-238-246-238h-8l3 83 3 84 240 231 240 230 3-76 3-76-238-238zm0-290c-131-131-241-238-245-238h-8v165l243 243 242 242 3-87 3-87-238-238zm-8-318-245-245v200l243 243 242 242 3-97 3-97-246-246z"/></g></g></svg>